<svg width="72" height="40" viewBox="0 0 72 40" fill="none" xmlns="http://www.w3.org/2000/svg">
<path d="M39.707 0L39.7482 1.07345C38.481 1.41243 37.0648 2.0339 35.4995 2.93785C33.9714 3.84181 32.3315 5.2919 30.5799 7.28814L20.2934 19.096L24.8217 13.1073L38.0711 35.4237C38.5556 36.2147 39.0401 36.8738 39.5246 37.4011C40.0091 37.9284 40.1895 38.314 41.0094 38.766L40.5919 39.9913C39.0266 39.916 38.2388 39.887 36.4498 39.887C34.6982 39.8493 33.021 39.8305 31.4184 39.8305C30.5612 39.8305 29.499 39.8493 28.2319 39.887C26.9647 39.887 25.3621 39.9247 23.4241 40V38.8701C25.1757 38.7947 26.182 38.5876 26.4429 38.2486C26.7411 37.9096 26.6106 37.2693 26.0516 36.3277L17.9454 22.4859C17.5727 21.8079 17.2373 21.2994 16.9391 20.9605C16.641 20.6215 16.3428 20.3766 16.0446 20.226C15.7837 20.0753 15.4297 19.9812 14.9824 19.9435V18.7571C16.6223 18.6817 18.169 18.1356 19.6225 17.1186C21.0761 16.064 22.8277 14.3691 24.8776 12.0339L26.7783 9.887C28.3437 8.11676 29.1636 6.59134 29.2381 5.31073C29.3499 3.99247 28.9586 2.97552 28.0641 2.25989C27.2069 1.50659 26.0702 1.11111 24.654 1.07345V0C25.6975 0.0376643 26.6665 0.0753282 27.561 0.112993C28.4927 0.112993 29.4618 0.131825 30.468 0.169489H34.1018C35.2945 0.169489 36.338 0.150657 37.2325 0.112993C38.1642 0.0753282 38.9616 0.0376643 39.707 0ZM19.2871 0V1.12994C18.169 1.16761 17.3118 1.31827 16.7155 1.58192C16.1564 1.80791 15.7837 2.25989 15.5974 2.93785C15.4111 3.57815 15.3179 4.5951 15.3179 5.9887V34.0113C15.3179 35.3672 15.4111 36.3842 15.5974 37.0621C15.821 37.7401 16.2124 38.1921 16.7714 38.4181C17.3304 38.6441 18.169 38.7947 19.2871 38.8701V40C18.2063 39.9247 16.8087 39.887 15.0943 39.887C13.4171 39.8493 11.7027 39.8305 9.95103 39.8305C7.93846 39.8305 6.0377 39.8493 4.24875 39.887C2.49707 39.887 1.08082 39.9247 0 40V38.8701C1.15536 38.7947 2.01257 38.6441 2.57161 38.4181C3.13066 38.1921 3.50336 37.7401 3.68971 37.0621C3.87606 36.3842 3.96923 35.3672 3.96923 34.0113V5.9887C3.96923 4.5951 3.87606 3.57815 3.68971 2.93785C3.50336 2.25989 3.11203 1.80791 2.51571 1.58192C1.95666 1.31827 1.11809 1.16761 0 1.12994V0C1.08082 0.0376643 2.49707 0.0753282 4.24875 0.112993C6.0377 0.150657 7.93846 0.169489 9.95103 0.169489C11.7027 0.169489 13.4171 0.150657 15.0943 0.112993C16.8087 0.0753282 18.2063 0.0376643 19.2871 0ZM59.4773 0V1.12994C58.2101 1.16761 57.2411 1.31827 56.5703 1.58192C55.9366 1.80791 55.508 2.25989 55.2845 2.93785C55.0608 3.57815 54.949 4.5951 54.949 5.9887V35.1412C54.949 36.1582 55.0235 36.9303 55.1727 37.4576C55.3217 37.9473 55.6012 38.2863 56.0112 38.4746C56.4212 38.6252 57.0175 38.7006 57.8001 38.7006H59.645C60.614 38.7006 61.6576 38.3239 62.7757 37.5706C63.8938 36.8173 64.9746 35.7815 66.0181 34.4633C67.099 33.145 68.0308 31.6573 68.8134 30C69.5961 28.3051 70.1551 26.5537 70.4906 24.7458H71.7764C71.6646 26.1017 71.6087 27.8343 71.6087 29.9435C71.6087 30.9228 71.6272 32.354 71.6645 34.2373C71.7018 36.0829 71.8137 38.0038 72 40C70.0992 39.9247 67.9562 39.887 65.5709 39.887C63.1857 39.8493 61.0613 39.8305 59.1978 39.8305H55.3403C53.8123 39.8305 52.1351 39.8493 50.3089 39.887C48.52 39.887 46.6937 39.9058 44.8303 39.9435C43.004 39.9435 42.2318 39.9537 40.5919 39.9913L40.4718 38.7834C41.6272 38.708 41.6437 38.6441 42.2027 38.4181C42.7618 38.1921 43.1345 37.7401 43.3208 37.0621C43.5072 36.3842 43.6004 35.3672 43.6004 34.0113V5.9887C43.6004 4.5951 43.5072 3.57815 43.3208 2.93785C43.1345 2.25989 42.7431 1.80791 42.1468 1.58192C41.5878 1.31827 40.8663 1.11111 39.7482 1.07345L39.707 0C40.7878 0.0376643 42.1282 0.0753282 43.8799 0.112993C45.6688 0.150657 47.5696 0.169489 49.5822 0.169489C51.4456 0.169489 53.2719 0.150657 55.0608 0.112993C56.8498 0.0753282 58.322 0.0376643 59.4773 0Z" fill="#0E2F58"/>
</svg>
